HIERARCHY
ROOT joint_0
{
	OFFSET 0.000000 0.000000 0.000000
	CHANNELS 6 Xposition Yposition Zposition Zrotation Yrotation Xrotation 
	JOINT joint_1
	{
		OFFSET -0.613770 -1.125488 108.300049
		CHANNELS 3 Zrotation Yrotation Xrotation
		JOINT joint_2
		{
			OFFSET -10.925537 -0.900513 98.259033
			CHANNELS 3 Zrotation Yrotation Xrotation
			JOINT joint_3
			{
				OFFSET -11.287842 0.313599 98.110962
				CHANNELS 3 Zrotation Yrotation Xrotation
				JOINT joint_4
				{
					OFFSET -2.124268 2.484680 136.491943
					CHANNELS 3 Zrotation Yrotation Xrotation
					JOINT joint_5
					{
						OFFSET 16.640869 1.801270 81.862061
						CHANNELS 3 Zrotation Yrotation Xrotation
						End Site
						{
							OFFSET 0.000000 0.000000 0.000000
						}
					}
				}
				JOINT joint_6
				{
					OFFSET 0.447998 -28.248108 77.258057
					CHANNELS 3 Zrotation Yrotation Xrotation
					JOINT joint_7
					{
						OFFSET 7.918701 -130.256348 -24.086060
						CHANNELS 3 Zrotation Yrotation Xrotation
						JOINT joint_8
						{
							OFFSET 62.431885 -29.384277 -258.572021
							CHANNELS 3 Zrotation Yrotation Xrotation
							JOINT joint_9
							{
								OFFSET 53.743164 -21.907532 -238.024963
								CHANNELS 3 Zrotation Yrotation Xrotation
								End Site
								{
									OFFSET 0.000000 0.000000 0.000000
								}
							}
						}
					}
				}
				JOINT joint_10
				{
					OFFSET -2.846924 31.052063 76.130981
					CHANNELS 3 Zrotation Yrotation Xrotation
					JOINT joint_11
					{
						OFFSET 9.073730 131.055603 -18.752930
						CHANNELS 3 Zrotation Yrotation Xrotation
						JOINT joint_12
						{
							OFFSET 52.981201 29.883301 -260.613037
							CHANNELS 3 Zrotation Yrotation Xrotation
							JOINT joint_13
							{
								OFFSET 62.237793 15.935547 -236.423035
								CHANNELS 3 Zrotation Yrotation Xrotation
								End Site
								{
									OFFSET 0.000000 0.000000 0.000000
								}
							}
						}
					}
				}
			}
		}
	}
	JOINT joint_14
	{
		OFFSET 22.046143 -72.816772 -98.122925
		CHANNELS 3 Zrotation Yrotation Xrotation
		JOINT joint_15
		{
			OFFSET -23.673828 -54.692932 -469.927032
			CHANNELS 3 Zrotation Yrotation Xrotation
			JOINT joint_16
			{
				OFFSET -34.875244 -46.505249 -395.890999
				CHANNELS 3 Zrotation Yrotation Xrotation
				JOINT joint_17
				{
					OFFSET 168.486328 14.224182 -74.182999
					CHANNELS 3 Zrotation Yrotation Xrotation
					End Site
					{
						OFFSET 0.000000 0.000000 0.000000
					}
				}
			}
		}
	}
	JOINT joint_18
	{
		OFFSET -1.731934 82.408569 -92.846924
		CHANNELS 3 Zrotation Yrotation Xrotation
		JOINT joint_19
		{
			OFFSET -6.908936 32.203369 -472.535034
			CHANNELS 3 Zrotation Yrotation Xrotation
			JOINT joint_20
			{
				OFFSET -13.963135 23.196533 -399.207993
				CHANNELS 3 Zrotation Yrotation Xrotation
				JOINT joint_21
				{
					OFFSET 168.417725 19.834229 -73.041004
					CHANNELS 3 Zrotation Yrotation Xrotation
					End Site
					{
						OFFSET 0.000000 0.000000 0.000000
					}
				}
			}
		}
	}
}
MOTION
Frames: 15
Frame Time: 0.016667
-2577.666016 902.801147 1061.280029 0.062720 1.722621 -1.772608 1.668234 -0.125518 2.635762 1.343746 -0.017564 -0.597387 1.449275 -0.010535 0.281112 0.126860 1.115053 -0.766747 0.000000 0.000000 0.000000 1.347907 1.146835 -0.835096 -0.160180 1.497720 0.404835 0.682502 -1.800305 2.335673 0.000000 0.000000 0.000000 4.412301 0.199802 -2.017065 -0.389116 -0.557848 -1.048046 -0.139335 1.356953 -0.884542 0.000000 0.000000 0.000000 0.356058 -4.870450 7.189441 0.064235 1.577953 -0.121505 0.086423 1.379334 -0.079660 0.000000 0.000000 0.000000 0.671515 -4.037451 -0.678248 1.104328 2.019138 -0.560599 0.944425 -0.212128 0.432853 0.000000 0.000000 0.000000 
-2577.893555 902.639587 1061.272949 0.075510 1.704549 -1.770860 1.673569 -0.132088 2.639533 1.348912 -0.015403 -0.598728 1.454672 -0.012256 0.281414 0.126431 1.110721 -0.764091 0.000000 0.000000 0.000000 1.343953 1.157417 -0.824097 -0.160686 1.507208 0.408399 0.683716 -1.815093 2.335225 0.000000 0.000000 0.000000 4.403581 0.202166 -2.033497 -0.392870 -0.554824 -1.065554 -0.143842 1.346750 -0.898931 0.000000 0.000000 0.000000 0.350288 -4.862603 7.200833 0.061561 1.573115 -0.128668 0.080301 1.401796 -0.084237 0.000000 0.000000 0.000000 0.666092 -4.038160 -0.665529 1.100149 2.028659 -0.569171 0.940300 -0.199334 0.429567 0.000000 0.000000 0.000000 
-2578.115723 902.475891 1061.265991 0.085721 1.688160 -1.770170 1.680449 -0.137949 2.641912 1.355887 -0.013946 -0.598700 1.461594 -0.013654 0.280751 0.125849 1.106854 -0.760752 0.000000 0.000000 0.000000 1.336405 1.167725 -0.813073 -0.160533 1.515778 0.414304 0.685034 -1.829963 2.335214 0.000000 0.000000 0.000000 4.392886 0.203981 -2.050430 -0.396270 -0.552174 -1.081377 -0.147927 1.337445 -0.911960 0.000000 0.000000 0.000000 0.345138 -4.854861 7.213210 0.059904 1.564687 -0.135113 0.074588 1.426363 -0.088816 0.000000 0.000000 0.000000 0.661590 -4.038522 -0.651618 1.096636 2.034423 -0.577627 0.937159 -0.184571 0.426476 0.000000 0.000000 0.000000 
-2578.339355 902.307861 1061.260010 0.092960 1.672087 -1.771464 1.689308 -0.138284 2.643462 1.364867 -0.015184 -0.597977 1.470330 -0.012391 0.279381 0.125380 1.102297 -0.757906 0.000000 0.000000 0.000000 1.325535 1.176092 -0.801794 -0.159494 1.521773 0.422802 0.686524 -1.845356 2.335785 0.000000 0.000000 0.000000 4.381736 0.202988 -2.069204 -0.399435 -0.552544 -1.094715 -0.151140 1.330897 -0.922431 0.000000 0.000000 0.000000 0.340624 -4.846064 7.227442 0.059464 1.552271 -0.140116 0.069391 1.453976 -0.093429 0.000000 0.000000 0.000000 0.658222 -4.037148 -0.635676 1.093870 2.035940 -0.585239 0.935158 -0.167426 0.423600 0.000000 0.000000 0.000000 
-2578.557617 902.138672 1061.255005 0.097881 1.657603 -1.773970 1.699346 -0.138330 2.644179 1.375244 -0.016725 -0.595854 1.480143 -0.009972 0.276777 0.124872 1.096872 -0.754758 0.000000 0.000000 0.000000 1.313054 1.183846 -0.790271 -0.158015 1.526857 0.432861 0.688259 -1.861358 2.337231 0.000000 0.000000 0.000000 4.369811 0.201123 -2.089106 -0.402235 -0.553856 -1.105988 -0.153973 1.325241 -0.931704 0.000000 0.000000 0.000000 0.336742 -4.837358 7.242753 0.060042 1.536331 -0.144316 0.064604 1.483834 -0.098055 0.000000 0.000000 0.000000 0.655811 -4.035357 -0.618464 1.091792 2.033608 -0.592775 0.934164 -0.148319 0.420928 0.000000 0.000000 0.000000 
-2578.772705 901.982056 1061.249023 0.100739 1.644903 -1.775459 1.707524 -0.138715 2.646579 1.383443 -0.018054 -0.595092 1.488074 -0.008289 0.275271 0.124640 1.089351 -0.752675 0.000000 0.000000 0.000000 1.306249 1.191333 -0.781689 -0.156914 1.532927 0.442325 0.690751 -1.879336 2.341378 0.000000 0.000000 0.000000 4.364784 0.200850 -2.110962 -0.404847 -0.554668 -1.117359 -0.156104 1.319740 -0.938387 0.000000 0.000000 0.000000 0.333829 -4.830136 7.255384 0.061246 1.519498 -0.146961 0.060374 1.514417 -0.102500 0.000000 0.000000 0.000000 0.653935 -4.033604 -0.603207 1.089964 2.027911 -0.599879 0.933760 -0.126769 0.418225 0.000000 0.000000 0.000000 
-2578.981445 901.849670 1061.244019 0.100587 1.636335 -1.774663 1.712462 -0.144563 2.653636 1.387545 -0.018187 -0.598624 1.492798 -0.007911 0.276828 0.124646 1.080273 -0.751504 0.000000 0.000000 0.000000 1.310930 1.199117 -0.776998 -0.157096 1.541680 0.448517 0.694390 -1.900109 2.349716 0.000000 0.000000 0.000000 4.370914 0.204298 -2.138044 -0.406870 -0.553707 -1.127831 -0.157501 1.313408 -0.942106 0.000000 0.000000 0.000000 0.332735 -4.827257 7.262691 0.063295 1.502199 -0.147128 0.057005 1.546067 -0.106661 0.000000 0.000000 0.000000 0.653136 -4.034574 -0.592097 1.089109 2.019351 -0.606768 0.934635 -0.102538 0.415760 0.000000 0.000000 0.000000 
-2579.185791 901.729004 1061.238037 0.098277 1.629518 -1.772875 1.715369 -0.151191 2.660771 1.389797 -0.017332 -0.600594 1.495439 -0.009596 0.277927 0.124629 1.070457 -0.750105 0.000000 0.000000 0.000000 1.321845 1.207208 -0.774754 -0.157812 1.552081 0.453826 0.698800 -1.923515 2.360544 0.000000 0.000000 0.000000 4.383381 0.209971 -2.166623 -0.408578 -0.551470 -1.138456 -0.158153 1.306493 -0.942891 0.000000 0.000000 0.000000 0.332636 -4.825959 7.267496 0.065967 1.484336 -0.145911 0.054261 1.578004 -0.110575 0.000000 0.000000 0.000000 0.653100 -4.035501 -0.582912 1.088734 2.007493 -0.613228 0.936295 -0.076349 0.413405 0.000000 0.000000 0.000000 
-2579.394287 901.602722 1061.232056 0.094094 1.622746 -1.770973 1.719625 -0.153743 2.664803 1.393593 -0.018061 -0.602778 1.499662 -0.008863 0.279254 0.124742 1.057181 -0.748896 0.000000 0.000000 0.000000 1.328316 1.214478 -0.772119 -0.158284 1.560794 0.459411 0.703246 -1.946699 2.371645 0.000000 0.000000 0.000000 4.390915 0.213690 -2.192655 -0.410399 -0.550255 -1.149665 -0.157814 1.301639 -0.940486 0.000000 0.000000 0.000000 0.333165 -4.825668 7.273050 0.069125 1.467657 -0.145619 0.052125 1.609165 -0.114158 0.000000 0.000000 0.000000 0.653630 -4.034922 -0.573537 1.088547 1.991587 -0.619479 0.938630 -0.045848 0.410836 0.000000 0.000000 0.000000 
-2579.612305 901.464905 1061.228027 0.087225 1.614751 -1.769134 1.726989 -0.148196 2.662381 1.401310 -0.019585 -0.601893 1.507106 -0.006909 0.277847 0.124378 1.040329 -0.744862 0.000000 0.000000 0.000000 1.325985 1.221461 -0.766183 -0.158835 1.567373 0.464189 0.708193 -1.972552 2.384010 0.000000 0.000000 0.000000 4.386252 0.214173 -2.213845 -0.412244 -0.550136 -1.161154 -0.156120 1.299785 -0.933766 0.000000 0.000000 0.000000 0.334728 -4.825524 7.280519 0.073362 1.452473 -0.147432 0.051012 1.640447 -0.117308 0.000000 0.000000 0.000000 0.654822 -4.031235 -0.563833 1.088430 1.970300 -0.624247 0.941779 -0.008774 0.407848 0.000000 0.000000 0.000000 
-2579.834717 901.322388 1061.224976 0.078465 1.607328 -1.767480 1.735746 -0.140075 2.657585 1.410595 -0.021340 -0.601073 1.516089 -0.003381 0.276173 0.124032 1.021473 -0.740669 0.000000 0.000000 0.000000 1.319174 1.227839 -0.759394 -0.159280 1.572446 0.468773 0.713188 -1.998373 2.396616 0.000000 0.000000 0.000000 4.375596 0.213159 -2.232824 -0.413965 -0.550465 -1.172486 -0.153536 1.299233 -0.924044 0.000000 0.000000 0.000000 0.336843 -4.827278 7.289024 0.077851 1.439037 -0.150057 0.050303 1.671462 -0.120260 0.000000 0.000000 0.000000 0.656546 -4.026668 -0.553589 1.088528 1.945001 -0.628974 0.945627 0.032703 0.404646 0.000000 0.000000 0.000000 
-2580.058350 901.175598 1061.219971 0.069801 1.599969 -1.766014 1.744052 -0.133679 2.651520 1.419734 -0.022210 -0.599034 1.524616 -0.000537 0.273024 0.123563 1.004928 -0.736173 0.000000 0.000000 0.000000 1.312021 1.234475 -0.751174 -0.159563 1.577586 0.473069 0.716700 -2.019879 2.404129 0.000000 0.000000 0.000000 4.364047 0.212166 -2.250653 -0.415361 -0.550626 -1.182292 -0.150379 1.300942 -0.912741 0.000000 0.000000 0.000000 0.339206 -4.830778 7.297738 0.081993 1.429245 -0.152070 0.050026 1.699695 -0.122788 0.000000 0.000000 0.000000 0.658348 -4.021635 -0.541972 1.088652 1.918469 -0.635529 0.949520 0.074400 0.401438 0.000000 0.000000 0.000000 
-2580.279297 901.023193 1061.213989 0.062657 1.594812 -1.765064 1.751758 -0.133014 2.644825 1.428391 -0.023369 -0.597475 1.532831 0.001356 0.270832 0.123457 0.994272 -0.734259 0.000000 0.000000 0.000000 1.302949 1.242028 -0.741991 -0.159437 1.583171 0.477538 0.717862 -2.032767 2.404261 0.000000 0.000000 0.000000 4.349828 0.212793 -2.269083 -0.415837 -0.548981 -1.188216 -0.147149 1.304009 -0.901496 0.000000 0.000000 0.000000 0.341164 -4.838680 7.306556 0.084636 1.424483 -0.152238 0.049436 1.724207 -0.125136 0.000000 0.000000 0.000000 0.659855 -4.017318 -0.527537 1.088452 1.888660 -0.646192 0.953131 0.116117 0.398107 0.000000 0.000000 0.000000 
-2580.501709 900.867493 1061.206055 0.055495 1.589895 -1.764433 1.759412 -0.133639 2.637640 1.437115 -0.025075 -0.595522 1.540986 0.003491 0.267998 0.123504 0.986761 -0.733520 0.000000 0.000000 0.000000 1.291642 1.249719 -0.731843 -0.159050 1.588373 0.481883 0.717551 -2.041221 2.399369 0.000000 0.000000 0.000000 4.333108 0.213462 -2.286778 -0.415951 -0.546960 -1.192405 -0.143456 1.309341 -0.889077 0.000000 0.000000 0.000000 0.343305 -4.848625 7.315627 0.086808 1.423567 -0.151731 0.049170 1.746098 -0.127121 0.000000 0.000000 0.000000 0.661483 -4.012917 -0.511551 1.088384 1.858008 -0.659030 0.956833 0.157651 0.394836 0.000000 0.000000 0.000000 
-2580.736816 900.709900 1061.193970 0.048662 1.581236 -1.763973 1.766626 -0.130253 2.630444 1.445345 -0.025610 -0.593593 1.548782 0.005616 0.266230 0.123425 0.980239 -0.732298 0.000000 0.000000 0.000000 1.280997 1.256588 -0.721824 -0.159501 1.592810 0.482372 0.717088 -2.050005 2.393631 0.000000 0.000000 0.000000 4.316895 0.212409 -2.304733 -0.416301 -0.546701 -1.197776 -0.139086 1.314101 -0.873982 0.000000 0.000000 0.000000 0.345122 -4.856762 7.325942 0.088648 1.425885 -0.152876 0.048912 1.767045 -0.129023 0.000000 0.000000 0.000000 0.662694 -4.009544 -0.495518 1.088577 1.836445 -0.671083 0.960139 0.196072 0.391759 0.000000 0.000000 0.000000 
